<?xml version="1.0" encoding="UTF-8" standalone="no"?>
<!DOCTYPE svg PUBLIC "-//W3C//DTD SVG 1.1//EN"
 "http://www.w3.org/Graphics/SVG/1.1/DTD/svg11.dtd">
<!-- Generated by graphviz version 2.43.0 (0)
 -->
<!-- Title: WFST Pages: 1 -->
<svg width="612pt" height="42pt"
 viewBox="0.00 0.00 612.00 42.19" xmlns="http://www.w3.org/2000/svg" xmlns:xlink="http://www.w3.org/1999/xlink">
<g id="graph0" class="graph" transform="scale(2.66 2.66) rotate(0) translate(4 108.21)">
<title>WFST</title>
<polygon fill="white" stroke="transparent" points="-4,4 -4,-108.21 1623.5,-108.21 1623.5,4 -4,4"/>
<text text-anchor="middle" x="809.75" y="-7.8" font-family="Times,serif" font-size="14.00">hello</text>
<!-- 0 -->
<g id="node1" class="node">
<title>0</title>
<ellipse fill="none" stroke="black" stroke-width="2" cx="27.5" cy="-53.21" rx="18" ry="18"/>
<text text-anchor="middle" x="27.5" y="-49.51" font-family="Times,serif" font-size="14.00">0</text>
</g>
<!-- 0&#45;&gt;0 -->
<g id="edge1" class="edge">
<title>0&#45;&gt;0</title>
<path fill="none" stroke="black" d="M15.11,-66.5C9.81,-77.6 13.94,-89.21 27.5,-89.21 36.82,-89.21 41.69,-83.72 42.1,-76.69"/>
<polygon fill="black" stroke="black" points="45.43,-75.53 39.89,-66.5 38.59,-77.01 45.43,-75.53"/>
<text text-anchor="middle" x="27.5" y="-93.01" font-family="Times,serif" font-size="14.00">0:0/&#45;0.5</text>
</g>
<!-- 1 -->
<g id="node2" class="node">
<title>1</title>
<ellipse fill="none" stroke="black" stroke-width="2" cx="184.5" cy="-53.21" rx="18" ry="18"/>
<text text-anchor="middle" x="184.5" y="-49.51" font-family="Times,serif" font-size="14.00">1</text>
</g>
<!-- 0&#45;&gt;1 -->
<g id="edge2" class="edge">
<title>0&#45;&gt;1</title>
<path fill="none" stroke="black" d="M45.68,-53.21C72.33,-53.21 123.89,-53.21 155.84,-53.21"/>
<polygon fill="black" stroke="black" points="156.24,-56.71 166.24,-53.21 156.24,-49.71 156.24,-56.71"/>
<text text-anchor="middle" x="106" y="-57.01" font-family="Times,serif" font-size="14.00">0:5467/&#45;0.5</text>
</g>
<!-- 0&#45;&gt;1 -->
<g id="edge3" class="edge">
<title>0&#45;&gt;1</title>
<path fill="none" stroke="black" d="M42.41,-42.75C47.77,-39.32 54.14,-35.95 60.5,-34.21 99.5,-23.5 112.5,-23.5 151.5,-34.21 154.58,-35.05 157.66,-36.28 160.63,-37.71"/>
<polygon fill="black" stroke="black" points="159.16,-40.9 169.59,-42.75 162.59,-34.79 159.16,-40.9"/>
<text text-anchor="middle" x="106" y="-38.01" font-family="Times,serif" font-size="14.00">5467:5467/0</text>
</g>
<!-- 1&#45;&gt;1 -->
<g id="edge4" class="edge">
<title>1&#45;&gt;1</title>
<path fill="none" stroke="black" d="M172.11,-66.5C166.81,-77.6 170.94,-89.21 184.5,-89.21 193.82,-89.21 198.69,-83.72 199.1,-76.69"/>
<polygon fill="black" stroke="black" points="202.43,-75.53 196.89,-66.5 195.59,-77.01 202.43,-75.53"/>
<text text-anchor="middle" x="184.5" y="-93.01" font-family="Times,serif" font-size="14.00">0:0/&#45;0.5</text>
</g>
<!-- 2 -->
<g id="node3" class="node">
<title>2</title>
<ellipse fill="none" stroke="black" stroke-width="2" cx="377.5" cy="-53.21" rx="18" ry="18"/>
<text text-anchor="middle" x="377.5" y="-49.51" font-family="Times,serif" font-size="14.00">2</text>
</g>
<!-- 1&#45;&gt;2 -->
<g id="edge5" class="edge">
<title>1&#45;&gt;2</title>
<path fill="none" stroke="black" d="M202.79,-53.21C236.1,-53.21 309.4,-53.21 349.31,-53.21"/>
<polygon fill="black" stroke="black" points="349.39,-56.71 359.39,-53.21 349.39,-49.71 349.39,-56.71"/>
<text text-anchor="middle" x="281" y="-57.01" font-family="Times,serif" font-size="14.00">0:195317/&#45;0.5</text>
</g>
<!-- 1&#45;&gt;2 -->
<g id="edge6" class="edge">
<title>1&#45;&gt;2</title>
<path fill="none" stroke="black" d="M199.41,-42.75C204.77,-39.32 211.14,-35.95 217.5,-34.21 271.93,-19.26 290.07,-19.26 344.5,-34.21 347.58,-35.05 350.66,-36.28 353.63,-37.71"/>
<polygon fill="black" stroke="black" points="352.16,-40.9 362.59,-42.75 355.59,-34.79 352.16,-40.9"/>
<text text-anchor="middle" x="281" y="-38.01" font-family="Times,serif" font-size="14.00">195317:195317/0</text>
</g>
<!-- 2&#45;&gt;2 -->
<g id="edge7" class="edge">
<title>2&#45;&gt;2</title>
<path fill="none" stroke="black" d="M363.46,-64.63C355.19,-76.26 359.88,-89.21 377.5,-89.21 390.44,-89.21 396.41,-82.23 395.39,-73.91"/>
<polygon fill="black" stroke="black" points="398.61,-72.53 391.54,-64.63 392.14,-75.21 398.61,-72.53"/>
<text text-anchor="middle" x="377.5" y="-93.01" font-family="Times,serif" font-size="14.00">0:0/&#45;0.5</text>
</g>
<!-- 3 -->
<g id="node4" class="node">
<title>3</title>
<ellipse fill="none" stroke="black" stroke-width="2" cx="570.5" cy="-53.21" rx="18" ry="18"/>
<text text-anchor="middle" x="570.5" y="-49.51" font-family="Times,serif" font-size="14.00">3</text>
</g>
<!-- 2&#45;&gt;3 -->
<g id="edge8" class="edge">
<title>2&#45;&gt;3</title>
<path fill="none" stroke="black" d="M395.79,-53.21C429.1,-53.21 502.4,-53.21 542.31,-53.21"/>
<polygon fill="black" stroke="black" points="542.39,-56.71 552.39,-53.21 542.39,-49.71 542.39,-56.71"/>
<text text-anchor="middle" x="474" y="-57.01" font-family="Times,serif" font-size="14.00">0:177913/&#45;0.5</text>
</g>
<!-- 2&#45;&gt;3 -->
<g id="edge9" class="edge">
<title>2&#45;&gt;3</title>
<path fill="none" stroke="black" d="M392.41,-42.75C397.77,-39.32 404.14,-35.95 410.5,-34.21 464.93,-19.26 483.07,-19.26 537.5,-34.21 540.58,-35.05 543.66,-36.28 546.63,-37.71"/>
<polygon fill="black" stroke="black" points="545.16,-40.9 555.59,-42.75 548.59,-34.79 545.16,-40.9"/>
<text text-anchor="middle" x="474" y="-38.01" font-family="Times,serif" font-size="14.00">177913:177913/0</text>
</g>
<!-- 3&#45;&gt;3 -->
<g id="edge10" class="edge">
<title>3&#45;&gt;3</title>
<path fill="none" stroke="black" d="M558.11,-66.5C552.81,-77.6 556.94,-89.21 570.5,-89.21 579.82,-89.21 584.69,-83.72 585.1,-76.69"/>
<polygon fill="black" stroke="black" points="588.43,-75.53 582.89,-66.5 581.59,-77.01 588.43,-75.53"/>
<text text-anchor="middle" x="570.5" y="-93.01" font-family="Times,serif" font-size="14.00">0:0/&#45;0.5</text>
</g>
<!-- 4 -->
<g id="node5" class="node">
<title>4</title>
<ellipse fill="none" stroke="black" stroke-width="2" cx="727.5" cy="-53.21" rx="18" ry="18"/>
<text text-anchor="middle" x="727.5" y="-49.51" font-family="Times,serif" font-size="14.00">4</text>
</g>
<!-- 3&#45;&gt;4 -->
<g id="edge11" class="edge">
<title>3&#45;&gt;4</title>
<path fill="none" stroke="black" d="M588.68,-53.21C615.33,-53.21 666.89,-53.21 698.84,-53.21"/>
<polygon fill="black" stroke="black" points="699.24,-56.71 709.24,-53.21 699.24,-49.71 699.24,-56.71"/>
<text text-anchor="middle" x="649" y="-57.01" font-family="Times,serif" font-size="14.00">0:5467/&#45;0.5</text>
</g>
<!-- 3&#45;&gt;4 -->
<g id="edge12" class="edge">
<title>3&#45;&gt;4</title>
<path fill="none" stroke="black" d="M585.41,-42.75C590.77,-39.32 597.14,-35.95 603.5,-34.21 642.5,-23.5 655.5,-23.5 694.5,-34.21 697.58,-35.05 700.66,-36.28 703.63,-37.71"/>
<polygon fill="black" stroke="black" points="702.16,-40.9 712.59,-42.75 705.59,-34.79 702.16,-40.9"/>
<text text-anchor="middle" x="649" y="-38.01" font-family="Times,serif" font-size="14.00">5467:5467/0</text>
</g>
<!-- 4&#45;&gt;4 -->
<g id="edge13" class="edge">
<title>4&#45;&gt;4</title>
<path fill="none" stroke="black" d="M715.11,-66.5C709.81,-77.6 713.94,-89.21 727.5,-89.21 736.82,-89.21 741.69,-83.72 742.1,-76.69"/>
<polygon fill="black" stroke="black" points="745.43,-75.53 739.89,-66.5 738.59,-77.01 745.43,-75.53"/>
<text text-anchor="middle" x="727.5" y="-93.01" font-family="Times,serif" font-size="14.00">0:0/&#45;0.5</text>
</g>
<!-- 5 -->
<g id="node6" class="node">
<title>5</title>
<ellipse fill="none" stroke="black" stroke-width="2" cx="902.5" cy="-53.21" rx="18" ry="18"/>
<text text-anchor="middle" x="902.5" y="-49.51" font-family="Times,serif" font-size="14.00">5</text>
</g>
<!-- 4&#45;&gt;5 -->
<g id="edge14" class="edge">
<title>4&#45;&gt;5</title>
<path fill="none" stroke="black" d="M745.72,-53.21C775.77,-53.21 838.02,-53.21 874.07,-53.21"/>
<polygon fill="black" stroke="black" points="874.35,-56.71 884.35,-53.21 874.35,-49.71 874.35,-56.71"/>
<text text-anchor="middle" x="815" y="-57.01" font-family="Times,serif" font-size="14.00">0:65775/&#45;0.5</text>
</g>
<!-- 4&#45;&gt;5 -->
<g id="edge15" class="edge">
<title>4&#45;&gt;5</title>
<path fill="none" stroke="black" d="M742.41,-42.75C747.77,-39.32 754.14,-35.95 760.5,-34.21 807.22,-21.38 822.78,-21.38 869.5,-34.21 872.58,-35.05 875.66,-36.28 878.63,-37.71"/>
<polygon fill="black" stroke="black" points="877.16,-40.9 887.59,-42.75 880.59,-34.79 877.16,-40.9"/>
<text text-anchor="middle" x="815" y="-38.01" font-family="Times,serif" font-size="14.00">65775:65775/0</text>
</g>
<!-- 5&#45;&gt;5 -->
<g id="edge16" class="edge">
<title>5&#45;&gt;5</title>
<path fill="none" stroke="black" d="M889.24,-65.75C882.8,-77.08 887.21,-89.21 902.5,-89.21 913.37,-89.21 918.74,-83.08 918.62,-75.46"/>
<polygon fill="black" stroke="black" points="921.94,-74.35 915.76,-65.75 915.23,-76.33 921.94,-74.35"/>
<text text-anchor="middle" x="902.5" y="-93.01" font-family="Times,serif" font-size="14.00">0:0/&#45;0.5</text>
</g>
<!-- 6 -->
<g id="node7" class="node">
<title>6</title>
<ellipse fill="none" stroke="black" stroke-width="2" cx="1095.5" cy="-53.21" rx="18" ry="18"/>
<text text-anchor="middle" x="1095.5" y="-49.51" font-family="Times,serif" font-size="14.00">6</text>
</g>
<!-- 5&#45;&gt;6 -->
<g id="edge17" class="edge">
<title>5&#45;&gt;6</title>
<path fill="none" stroke="black" d="M920.79,-53.21C954.1,-53.21 1027.4,-53.21 1067.31,-53.21"/>
<polygon fill="black" stroke="black" points="1067.39,-56.71 1077.39,-53.21 1067.39,-49.71 1067.39,-56.71"/>
<text text-anchor="middle" x="999" y="-57.01" font-family="Times,serif" font-size="14.00">0:177248/&#45;0.5</text>
</g>
<!-- 5&#45;&gt;6 -->
<g id="edge18" class="edge">
<title>5&#45;&gt;6</title>
<path fill="none" stroke="black" d="M917.41,-42.75C922.77,-39.32 929.14,-35.95 935.5,-34.21 989.93,-19.26 1008.07,-19.26 1062.5,-34.21 1065.58,-35.05 1068.66,-36.28 1071.63,-37.71"/>
<polygon fill="black" stroke="black" points="1070.16,-40.9 1080.59,-42.75 1073.59,-34.79 1070.16,-40.9"/>
<text text-anchor="middle" x="999" y="-38.01" font-family="Times,serif" font-size="14.00">177248:177248/0</text>
</g>
<!-- 6&#45;&gt;6 -->
<g id="edge19" class="edge">
<title>6&#45;&gt;6</title>
<path fill="none" stroke="black" d="M1081.46,-64.63C1073.19,-76.26 1077.88,-89.21 1095.5,-89.21 1108.44,-89.21 1114.41,-82.23 1113.39,-73.91"/>
<polygon fill="black" stroke="black" points="1116.61,-72.53 1109.54,-64.63 1110.14,-75.21 1116.61,-72.53"/>
<text text-anchor="middle" x="1095.5" y="-93.01" font-family="Times,serif" font-size="14.00">0:0/&#45;0.5</text>
</g>
<!-- 7 -->
<g id="node8" class="node">
<title>7</title>
<ellipse fill="none" stroke="black" stroke-width="2" cx="1288.5" cy="-53.21" rx="18" ry="18"/>
<text text-anchor="middle" x="1288.5" y="-49.51" font-family="Times,serif" font-size="14.00">7</text>
</g>
<!-- 6&#45;&gt;7 -->
<g id="edge20" class="edge">
<title>6&#45;&gt;7</title>
<path fill="none" stroke="black" d="M1113.79,-53.21C1147.1,-53.21 1220.4,-53.21 1260.31,-53.21"/>
<polygon fill="black" stroke="black" points="1260.39,-56.71 1270.39,-53.21 1260.39,-49.71 1260.39,-56.71"/>
<text text-anchor="middle" x="1192" y="-57.01" font-family="Times,serif" font-size="14.00">0:151023/&#45;0.5</text>
</g>
<!-- 6&#45;&gt;7 -->
<g id="edge21" class="edge">
<title>6&#45;&gt;7</title>
<path fill="none" stroke="black" d="M1110.41,-42.75C1115.77,-39.32 1122.14,-35.95 1128.5,-34.21 1182.93,-19.26 1201.07,-19.26 1255.5,-34.21 1258.58,-35.05 1261.66,-36.28 1264.63,-37.71"/>
<polygon fill="black" stroke="black" points="1263.16,-40.9 1273.59,-42.75 1266.59,-34.79 1263.16,-40.9"/>
<text text-anchor="middle" x="1192" y="-38.01" font-family="Times,serif" font-size="14.00">151023:151023/0</text>
</g>
<!-- 7&#45;&gt;7 -->
<g id="edge22" class="edge">
<title>7&#45;&gt;7</title>
<path fill="none" stroke="black" d="M1274.46,-64.63C1266.19,-76.26 1270.88,-89.21 1288.5,-89.21 1301.44,-89.21 1307.41,-82.23 1306.39,-73.91"/>
<polygon fill="black" stroke="black" points="1309.61,-72.53 1302.54,-64.63 1303.14,-75.21 1309.61,-72.53"/>
<text text-anchor="middle" x="1288.5" y="-93.01" font-family="Times,serif" font-size="14.00">0:0/&#45;0.5</text>
</g>
<!-- 8 -->
<g id="node9" class="node">
<title>8</title>
<ellipse fill="none" stroke="black" stroke-width="2" cx="1481.5" cy="-53.21" rx="18" ry="18"/>
<text text-anchor="middle" x="1481.5" y="-49.51" font-family="Times,serif" font-size="14.00">8</text>
</g>
<!-- 7&#45;&gt;8 -->
<g id="edge23" class="edge">
<title>7&#45;&gt;8</title>
<path fill="none" stroke="black" d="M1306.79,-53.21C1340.1,-53.21 1413.4,-53.21 1453.31,-53.21"/>
<polygon fill="black" stroke="black" points="1453.39,-56.71 1463.39,-53.21 1453.39,-49.71 1453.39,-56.71"/>
<text text-anchor="middle" x="1385" y="-57.01" font-family="Times,serif" font-size="14.00">0:112060/&#45;0.5</text>
</g>
<!-- 7&#45;&gt;8 -->
<g id="edge24" class="edge">
<title>7&#45;&gt;8</title>
<path fill="none" stroke="black" d="M1303.41,-42.75C1308.77,-39.32 1315.14,-35.95 1321.5,-34.21 1375.93,-19.26 1394.07,-19.26 1448.5,-34.21 1451.58,-35.05 1454.66,-36.28 1457.63,-37.71"/>
<polygon fill="black" stroke="black" points="1456.16,-40.9 1466.59,-42.75 1459.59,-34.79 1456.16,-40.9"/>
<text text-anchor="middle" x="1385" y="-38.01" font-family="Times,serif" font-size="14.00">112060:112060/0</text>
</g>
<!-- 8&#45;&gt;8 -->
<g id="edge25" class="edge">
<title>8&#45;&gt;8</title>
<path fill="none" stroke="black" d="M1471.93,-68.75C1469.23,-79.11 1472.42,-89.21 1481.5,-89.21 1487.46,-89.21 1490.88,-84.86 1491.77,-78.94"/>
<polygon fill="black" stroke="black" points="1495.24,-78.49 1491.07,-68.75 1488.26,-78.96 1495.24,-78.49"/>
<text text-anchor="middle" x="1481.5" y="-93.01" font-family="Times,serif" font-size="14.00">0:0/&#45;0.5</text>
</g>
<!-- 9 -->
<g id="node10" class="node">
<title>9</title>
<ellipse fill="none" stroke="black" stroke-width="2" cx="1597.5" cy="-53.21" rx="18" ry="18"/>
<ellipse fill="none" stroke="black" stroke-width="2" cx="1597.5" cy="-53.21" rx="22" ry="22"/>
<text text-anchor="middle" x="1597.5" y="-49.51" font-family="Times,serif" font-size="14.00">9</text>
</g>
<!-- 8&#45;&gt;9 -->
<g id="edge26" class="edge">
<title>8&#45;&gt;9</title>
<path fill="none" stroke="black" d="M1499.81,-53.21C1517.08,-53.21 1543.99,-53.21 1565.04,-53.21"/>
<polygon fill="black" stroke="black" points="1565.13,-56.71 1575.13,-53.21 1565.13,-49.71 1565.13,-56.71"/>
<text text-anchor="middle" x="1537.5" y="-57.01" font-family="Times,serif" font-size="14.00">&#45;1:&#45;1/0</text>
</g>
</g>
</svg>
